<?xml version="1.0" standalone="no"?>
<!DOCTYPE svg PUBLIC "-//W3C//DTD SVG 20010904//EN"
 "http://www.w3.org/TR/2001/REC-SVG-20010904/DTD/svg10.dtd">
<svg version="1.0" xmlns="http://www.w3.org/2000/svg"
 width="700.000000pt" height="700.000000pt" viewBox="0 0 700.000000 700.000000"
 preserveAspectRatio="xMidYMid meet">
<metadata>
Created by potrace 1.14, written by Peter Selinger 2001-2017
</metadata>
<g transform="translate(0.000000,700.000000) scale(0.100000,-0.100000)"
fill="#000000" stroke="none">
<path d="M390 6760 c0 -313 0 -5899 0 -5947 l0 -38 3110 0 3110 0 0 120 c0
163 0 5502 0 5838 l0 267 -3110 0 -3110 0 0 -240z m6095 141 l30 -1 0 -3010
c0 -1656 -2 -3011 -5 -3011 -3 -1 -1358 -2 -3012 -3 -2668 -1 -3008 1 -3009
14 -4 83 -1 5999 3 6006 5 7 5725 11 5993 5z"/>
<path d="M1174 5901 c-2 -2 -4 -894 -4 -1980 l0 -1976 358 0 357 0 0 1978 c0
1087 -2 1977 -5 1978 -17 3 -702 3 -706 0z"/>
<path d="M2678 5902 c-14 -3 -15 -204 -14 -1980 l1 -1977 725 1 c809 0 888 3
1085 40 734 139 1223 616 1389 1357 43 189 58 336 59 567 2 442 -69 772 -235
1090 -170 327 -416 562 -753 720 -153 72 -371 137 -517 155 -24 3 -52 7 -63 9
-78 15 -280 19 -926 20 -404 1 -742 0 -751 -2z m1472 -626 c52 -4 113 -11 135
-16 22 -5 56 -12 75 -15 53 -9 203 -61 262 -91 134 -67 268 -181 354 -299 86
-119 174 -340 203 -510 27 -162 33 -231 33 -398 1 -410 -70 -701 -225 -932
-53 -78 -175 -200 -255 -254 -112 -75 -286 -143 -432 -167 -25 -4 -47 -8 -50
-9 -45 -12 -212 -18 -507 -19 l-363 -1 0 1356 c0 745 2 1358 4 1360 7 7 664 2
766 -5z"/>
<path d="M2149 483 c-13 -16 -12 -17 4 -4 16 13 21 21 13 21 -2 0 -10 -8 -17
-17z"/>
<path d="M756 478 c3 -5 10 -6 15 -3 13 9 11 12 -6 12 -8 0 -12 -4 -9 -9z"/>
<path d="M6270 480 c0 -5 5 -10 11 -10 5 0 7 5 4 10 -3 6 -8 10 -11 10 -2 0
-4 -4 -4 -10z"/>
</g>
</svg>
